<svg width="400" height="400" viewBox="0 0 400 400" fill="none" xmlns="http://www.w3.org/2000/svg">
<path fill-rule="evenodd" clip-rule="evenodd" d="M400 0V386.667L293.333 280V106.667H120L13.3333 0H400ZM354.667 389.333L344 400H364.667L354.667 389.333ZM354.667 368.667L344 379.333L354.667 390L365.333 379.333L354.667 368.667ZM240 316L229.333 305.333L218.667 316L229.333 326.667L240 316ZM177.333 316L166.667 305.333L156 316L166.667 326.667L177.333 316ZM238 293.333H221.333L219.333 295.333L230 306L240.667 295.333L238 293.333ZM198 316L187.333 305.333L176.667 316L187.333 326.667L198 316ZM196 293.333H179.333L177.333 295.333L188 306L198.667 295.333L196 293.333ZM145.333 305.333L134.667 316L145.333 326.667L156 316L145.333 305.333ZM154 293.333H137.333L135.333 295.333L146 306L156.667 295.333L154 293.333ZM218.667 316L208 305.333L197.333 316L208 326.667L218.667 316ZM282 316L271.333 305.333L260.667 316L271.333 326.667L282 316ZM302.667 316L292 305.333L281.333 316L292 326.667L302.667 316ZM250 326.667L260.667 316L250 305.333L239.333 316L250 326.667ZM260.667 295.333L258.667 293.333H242L240 295.333L250.667 306L260.667 295.333ZM323.333 400H344L333.333 389.333L323.333 400ZM292 368.667L302.667 358L292 347.333L281.333 358L292 368.667ZM334 347.333L323.333 358L334 368.667L344.667 358L334 347.333ZM282 378.667L292.667 389.333L303.333 378.667L292.667 368L282 378.667ZM292 347.333L302.667 336.667L292 326.667L281.333 337.333L292 347.333ZM323.333 337.333L313.333 326.667L302.667 337.333L313.333 348L323.333 337.333ZM260.667 337.333L271.333 348L282 337.333L271.333 326.667L260.667 337.333ZM240 337.333L250.667 348L261.333 337.333L250.667 326.667L240 337.333ZM282 400H302.667L292 389.333L282 400ZM334 368.667L323.333 379.333L334 390L344.667 379.333L334 368.667ZM240 400H260.667L250 389.333L240 400ZM302.667 378.667L313.333 389.333L324 378.667L313.333 368.667L302.667 378.667ZM250 368.667L260.667 358L250 347.333L239.333 358L250 368.667ZM240 378.667L250.667 389.333L261.333 378.667L250.667 368L240 378.667ZM260.667 378.667L271.333 389.333L282 378.667L271.333 368L260.667 378.667ZM135.333 378.667L146 389.333L156.667 378.667L146 368L135.333 378.667ZM218.667 400H239.333L228.667 389.333L218.667 400ZM229.333 326.667L218.667 337.333L229.333 348L240 337.333L229.333 326.667ZM198 337.333L208.667 348L219.333 337.333L208.667 326.667L198 337.333ZM177.333 400H198L187.333 389.333L177.333 400ZM177.333 337.333L188 348L198.667 337.333L188 326.667L177.333 337.333ZM198 378.667L208.667 389.333L219.333 378.667L208.667 368L198 378.667ZM229.333 347.333L218.667 358L229.333 368.667L240 358L229.333 347.333ZM229.333 368.667L218.667 379.333L229.333 390L240 379.333L229.333 368.667ZM145.333 326.667L134.667 337.333L145.333 348L156 337.333L145.333 326.667ZM145.333 347.333L134.667 358L145.333 368.667L156 358L145.333 347.333ZM156 378.667L166.667 389.333L177.333 378.667L166.667 368L156 378.667ZM156 337.333L166.667 348L177.333 337.333L166.667 326.667L156 337.333ZM177.333 378.667L188 389.333L198.667 378.667L188 368L177.333 378.667ZM187.333 368.667L198 358L187.333 347.333L176.667 358L187.333 368.667ZM135.333 400H156L145.333 389.333L135.333 400ZM20 75.3333L9.33334 86L20 96.6667L30.6667 86L20 75.3333ZM0 74.6667L10 64.6667L0 54.6667V74.6667ZM20 54.6667L9.33334 65.3333L20 76L30.6667 65.3333L20 54.6667ZM0 116.667L10 106.667L0 96.6667V116.667ZM20 96L9.33334 106.667L20 117.333L30.6667 106.667L20 96ZM20 33.3333L9.33334 44L20 54.6667L30.6667 44L20 33.3333ZM0 13.3333V32.6667L10 22.6667L0 13.3333ZM72.6667 106.667L62 96L51.3333 106.667L62 117.333L72.6667 106.667ZM40.6667 96L51.3333 85.3333L40.6667 74.6667L30 85.3333L40.6667 96ZM40.6667 117.333L51.3333 106.667L40.6667 96L30 106.667L40.6667 117.333ZM93.3333 106.667L82.6667 96L72 106.667L82.6667 117.333L93.3333 106.667ZM51.3333 64.6667L40.6667 54L30 64.6667L40.6667 75.3333L51.3333 64.6667ZM106.667 135.333V120L104 117.333L93.3333 128L104 138.667L106.667 135.333ZM51.3333 211.333L62 222L72.6667 211.333L62 200.667L51.3333 211.333ZM82.6667 138L93.3333 127.333L82.6667 116.667L72 127.333L82.6667 138ZM106.667 177.333V162L104 159.333L93.3333 170L104 180.667L106.667 177.333ZM82.6667 159.333L93.3333 148.667L82.6667 138L72 148.667L82.6667 159.333ZM82.6667 180L93.3333 169.333L82.6667 158.667L72 169.333L82.6667 180ZM106.667 218.667V203.333L104 200.667L93.3333 211.333L104 222L106.667 218.667ZM72.6667 169.333L62 158.667L51.3333 169.333L62 180L72.6667 169.333ZM40.6667 138L30 148.667L40.6667 159.333L51.3333 148.667L40.6667 138ZM40.6667 159.333L30 170L40.6667 180.667L51.3333 170L40.6667 159.333ZM72.6667 127.333L62 116.667L51.3333 127.333L62 138L72.6667 127.333ZM40.6667 117.333L30 128L40.6667 138.667L51.3333 128L40.6667 117.333ZM82.6667 222L93.3333 211.333L82.6667 200.667L72 211.333L82.6667 222ZM30.6667 211.333L41.3333 222L52 211.333L41.3333 200.667L30.6667 211.333ZM40.6667 180L30 190.667L40.6667 201.333L51.3333 190.667L40.6667 180ZM82.6667 200.667L93.3333 190L82.6667 179.333L72 190L82.6667 200.667ZM20 159.333L9.33334 170L20 180.667L30.6667 170L20 159.333ZM20 138L9.33334 148.667L20 159.333L30.6667 148.667L20 138ZM20 117.333L9.33334 128L20 138.667L30.6667 128L20 117.333ZM0 137.333L10 127.333L0 117.333V137.333ZM0 201.333V220.667L10 210.667L0 201.333ZM0 179.333L10 169.333L0 160V179.333ZM20 180L9.33334 190.667L20 201.333L30.6667 190.667L20 180ZM30.6667 211.333L20 200.667L9.33334 211.333L20 222L30.6667 211.333ZM0 326L10 316L0 306V326ZM20 305.333L9.33334 316L20 326.667L30.6667 316L20 305.333ZM0 284L10 274L0 264V284ZM20 284.667L9.33334 295.333L20 306L30.6667 295.333L20 284.667ZM0 242L10 232L0 222V242ZM20 264L9.33334 274.667L20 285.333L30.6667 274.667L20 264ZM20 242.667L9.33334 253.333L20 264L30.6667 253.333L20 242.667ZM20 222L9.33334 232.667L20 243.333L30.6667 232.667L20 222ZM82.6667 284.667L93.3333 274L82.6667 263.333L72 274L82.6667 284.667ZM82.6667 305.333L93.3333 294.667L82.6667 284L72 294.667L82.6667 305.333ZM114 316L103.333 305.333L92.6667 316L103.333 326.667L114 316ZM124.667 305.333L114 316L124.667 326.667L135.333 316L124.667 305.333ZM82.6667 326.667L93.3333 316L82.6667 305.333L72 316L82.6667 326.667ZM106.667 282V266.667L104 264L93.3333 274.667L104 285.333L106.667 282ZM106.667 240V224.667L104 222L93.3333 232.667L104 243.333L106.667 240ZM40.6667 284.667L30 295.333L40.6667 306L51.3333 295.333L40.6667 284.667ZM40.6667 305.333L30 316L40.6667 326.667L51.3333 316L40.6667 305.333ZM133.333 293.333H116.667L114.667 295.333L125.333 306L136 295.333L133.333 293.333ZM51.3333 232L40.6667 221.333L30 232L40.6667 242.667L51.3333 232ZM40.6667 264L30 274.667L40.6667 285.333L51.3333 274.667L40.6667 264ZM40.6667 242.667L30 253.333L40.6667 264L51.3333 253.333L40.6667 242.667ZM72.6667 232L62 221.333L51.3333 232L62 242.667L72.6667 232ZM93.3333 232L82.6667 221.333L72 232L82.6667 242.667L93.3333 232ZM72.6667 274L62 263.333L51.3333 274L62 284.667L72.6667 274ZM72.6667 316L62 305.333L51.3333 316L62 326.667L72.6667 316ZM82.6667 264L93.3333 253.333L82.6667 242.667L72 253.333L82.6667 264ZM30.6667 337.333L41.3333 348L52 337.333L41.3333 326.667L30.6667 337.333ZM51.3333 337.333L62 348L72.6667 337.333L62 326.667L51.3333 337.333ZM72.6667 337.333L83.3333 348L94 337.333L83.3333 326.667L72.6667 337.333ZM40.6667 368.667L51.3333 358L40.6667 347.333L30 358L40.6667 368.667ZM104 347.333L114.667 336.667L104 326L93.3333 336.667L104 347.333ZM30.6667 400H51.3333L40.6667 389.333L30.6667 400ZM124.667 389.333L135.333 378.667L124.667 368L114 378.667L124.667 389.333ZM124.667 368.667L135.333 358L124.667 347.333L114 358L124.667 368.667ZM30.6667 378.667L41.3333 389.333L52 378.667L41.3333 368L30.6667 378.667ZM51.3333 378.667L62 389.333L72.6667 378.667L62 368L51.3333 378.667ZM72.6667 378.667L83.3333 389.333L94 378.667L83.3333 368L72.6667 378.667ZM72.6667 400H93.3333L82.6667 389.333L72.6667 400ZM93.3333 378.667L104 389.333L114.667 378.667L104 368L93.3333 378.667ZM114.667 400H135.333L124.667 389.333L114.667 400ZM124.667 347.333L135.333 336.667L124.667 326L114 336.667L124.667 347.333ZM82.6667 368.667L93.3333 358L82.6667 347.333L72 358L82.6667 368.667ZM0 346.667L10 336.667L0 326.667V346.667ZM20 368.667L9.33334 379.333L20 390L30.6667 379.333L20 368.667ZM20 326.667L9.33334 337.333L20 348L30.6667 337.333L20 326.667ZM0 388.667L10 378.667L0 368.667V388.667ZM20 347.333L9.33334 358L20 368.667L30.6667 358L20 347.333ZM9.33334 400H30L19.3333 389.333L9.33334 400ZM365.333 400H384.667L374.667 390L365.333 400Z" fill="white"/>
</svg>
